<?xml version="1.0" encoding="UTF-8"?>
<!DOCTYPE svg PUBLIC "-//W3C//DTD SVG 1.1//EN" "http://www.w3.org/Graphics/SVG/1.1/DTD/svg11.dtd">
<!-- Creator: CorelDRAW 2019 (64-Bit) -->
<svg xmlns="http://www.w3.org/2000/svg" xml:space="preserve" width="41.1672mm" height="19.6595mm" version="1.1" style="shape-rendering:geometricPrecision; text-rendering:geometricPrecision; image-rendering:optimizeQuality; fill-rule:evenodd; clip-rule:evenodd"
viewBox="0 0 2302.26 1099.45"
 xmlns:xlink="http://www.w3.org/1999/xlink">
 <defs>
  <style type="text/css">
   <![CDATA[
    .fil1 {fill:white}
    .fil0 {fill:white;fill-rule:nonzero}
   ]]>
  </style>
 </defs>
 <g id="Слой_x0020_1">
  <metadata id="CorelCorpID_0Corel-Layer"/>
  <g id="_2139238731104">
   <polygon class="fil0" points="1260.65,274.95 1260.65,445.94 1376.92,274.95 1436.2,274.95 1436.2,562.21 1370.09,562.21 1370.09,391.22 1253.81,562.21 1194.53,562.21 1194.53,274.95 "/>
   <path id="1" class="fil0" d="M1677.64 409.46c8.51,3.95 16.11,9.12 22.8,15.5 5.78,5.48 11.02,12.47 15.73,20.98 4.71,8.51 7.07,19.15 7.07,31.92 0,11.55 -2.28,22.42 -6.84,32.6 -4.56,10.18 -11.02,19.08 -19.38,26.68 -8.36,7.6 -18.24,13.68 -29.63,18.24 -11.4,4.56 -23.94,6.84 -37.62,6.84l-129.95 0 0 -287.26 123.11 0c13.08,0 25.08,2.13 36.02,6.38 10.94,4.26 20.3,10.03 28.05,17.33 7.75,7.3 13.83,15.73 18.24,25.31 4.41,9.58 6.61,19.84 6.61,30.78 0,9.73 -1.82,18.09 -5.47,25.08 -3.65,7 -7.6,12.62 -11.86,16.87 -5.17,5.17 -10.79,9.42 -16.87,12.77zm-111.71 -20.52l50.16 0c9.12,0 16.72,-2.96 22.8,-8.89 6.08,-5.93 9.12,-12.84 9.12,-20.75 0,-7.9 -3.04,-14.81 -9.12,-20.74 -6.08,-5.93 -13.68,-8.89 -22.8,-8.89l-50.16 0 0 59.27zm57 118.55c10.33,0 19,-3.42 25.99,-10.26 6.99,-6.84 10.49,-14.81 10.49,-23.94 0,-9.12 -3.5,-17.1 -10.49,-23.94 -7,-6.84 -15.66,-10.26 -25.99,-10.26l-57 0 0 68.4 57 0z"/>
   <path id="2" class="fil0" d="M1907.68 450.49l-31.92 -95.75 -31.92 95.75 63.84 0zm-82.07 57l-18.24 54.72 -68.4 0 102.59 -287.26 68.4 0 102.59 287.26 -68.4 0 -18.24 -54.72 -100.31 0z"/>
   <polygon id="3" class="fil0" points="2288.19,274.95 2288.19,562.21 2222.07,562.21 2222.07,448.21 2112.63,448.21 2112.63,562.21 2046.52,562.21 2046.52,274.95 2112.63,274.95 2112.63,384.38 2222.07,384.38 2222.07,274.95 "/>
   <polygon id="4" class="fil0" points="1352.18,610.95 1352.18,822.89 1325.38,822.89 1325.38,634.45 1221.07,634.45 1221.07,822.89 1194.09,822.89 1194.09,610.95 "/>
   <polygon id="5" class="fil0" points="1544.04,799.39 1544.04,822.89 1406.02,822.89 1406.02,610.95 1540.62,610.95 1540.62,634.45 1433,634.45 1433,701.81 1532.2,701.81 1532.2,725.3 1433,725.3 1433,799.39 "/>
   <polygon id="6" class="fil0" points="1720.53,634.45 1656.6,634.45 1656.6,822.89 1629.62,822.89 1629.62,634.45 1565.75,634.45 1565.75,610.95 1720.53,610.95 "/>
   <path id="7" class="fil0" d="M1824.67 610.95c9.19,0 17.88,1.74 26.08,5.22 8.24,3.53 15.36,8.3 21.36,14.3 6.06,6.06 10.88,13.06 14.47,21.03 3.65,8.02 5.44,16.32 5.44,25.02 0,8.75 -1.8,17.1 -5.44,25.12 -3.58,7.96 -8.41,14.98 -14.47,21.03 -6,6 -13.12,10.77 -21.36,14.3 -8.19,3.48 -16.88,5.22 -26.08,5.11l-45.37 0 0 80.81 -26.98 0 0 -211.93 72.35 0zm0 107.62c5.32,0 10.49,-1.07 15.42,-3.14 4.94,-2.07 9.26,-5.1 12.96,-9.03 3.76,-3.87 6.67,-8.36 8.75,-13.46 2.07,-5.16 3.14,-10.65 3.25,-16.43 0,-5.83 -1.07,-11.33 -3.25,-16.43 -2.07,-5.16 -4.99,-9.65 -8.75,-13.52 -3.7,-3.81 -8.02,-6.78 -12.96,-8.86 -4.93,-2.07 -10.09,-3.14 -15.42,-3.25l-45.37 0 0 84.12 45.37 0z"/>
   <path id="8" class="fil0" d="M1944.07 716.89c0,12.17 2.02,23.39 5.94,33.71 4.04,10.26 9.48,19.18 16.26,26.58 6.68,7.57 14.42,13.46 23.16,17.61 8.75,4.15 17.72,6.22 26.92,6.22 9.26,0 18.23,-2.07 26.98,-6.22 8.75,-4.15 16.49,-10.04 23.16,-17.55 6.68,-7.57 12.06,-16.43 16.1,-26.64 4.04,-10.32 6.11,-21.54 6.11,-33.71 0,-12.11 -2.07,-23.39 -6.11,-33.65 -4.04,-10.32 -9.42,-19.23 -16.1,-26.8 -6.67,-7.57 -14.41,-13.35 -23.16,-17.39 -8.75,-4.21 -17.72,-6.28 -26.98,-6.28 -9.19,0 -18.17,2.07 -26.92,6.28 -8.75,4.15 -16.49,9.93 -23.16,17.39 -6.67,7.57 -12.11,16.49 -16.26,26.8 -3.93,10.26 -5.94,21.54 -5.94,33.65zm171.55 0c0,15.26 -2.75,29.39 -8.19,42.4 -5.5,13.07 -12.78,24.45 -21.87,34.21 -9.09,9.7 -19.69,17.33 -31.74,22.83 -12,5.44 -24.51,8.19 -37.46,8.19 -13.01,0 -25.57,-2.75 -37.57,-8.19 -12.06,-5.5 -22.6,-13.13 -31.58,-22.83 -9.09,-9.76 -16.37,-21.14 -21.87,-34.21 -5.44,-13.01 -8.19,-27.14 -8.19,-42.4 0,-14.97 2.75,-29.05 8.19,-42.23 5.5,-13.13 12.78,-24.56 21.87,-34.32 9.08,-9.76 19.63,-17.33 31.58,-22.83 12,-5.49 24.56,-8.24 37.57,-8.24 13.07,0 25.57,2.75 37.46,8.24 12.06,5.5 22.66,13.07 31.74,22.83 9.09,9.76 16.37,21.2 21.87,34.32 5.44,13.18 8.19,27.26 8.19,42.23z"/>
   <path id="9" class="fil0" d="M2270.24 710.16c5.78,2.97 11.11,6.78 15.93,11.49 4.04,4.1 7.74,9.42 10.99,16.1 3.42,6.73 5.1,14.86 5.1,24.51 0,7.91 -1.68,15.47 -5.1,22.82 -3.37,7.35 -8.08,13.74 -14.13,19.24 -6,5.61 -13.13,10.09 -21.37,13.46 -8.19,3.42 -17.1,5.11 -26.75,5.11l-80.7 0 0 -211.93 79.08 0c8.75,0 16.82,1.4 24.28,4.26 7.46,2.98 13.8,7.01 19.07,12.17 5.38,5.11 9.59,11.22 12.67,18.23 3.03,6.9 4.6,14.42 4.6,22.49 0,7.68 -1.29,14.13 -3.81,19.4 -2.52,5.27 -5.16,9.59 -8.02,12.96 -3.65,3.98 -7.57,7.18 -11.83,9.7zm-89.05 -10.15l52.1 0c4.93,0 9.59,-0.9 13.96,-2.64 4.37,-1.8 8.13,-4.15 11.33,-7.06 3.14,-2.98 5.6,-6.34 7.4,-10.04 1.74,-3.81 2.64,-7.91 2.64,-12.17 0,-4.71 -0.9,-9.09 -2.64,-13.13 -1.8,-4.04 -4.26,-7.57 -7.4,-10.54 -3.2,-3.03 -6.96,-5.44 -11.33,-7.24 -4.37,-1.74 -9.03,-2.63 -13.96,-2.75l-52.1 0 0 65.56zm53.73 99.37c11.95,0 21.7,-3.7 29.21,-11.16 7.57,-7.46 11.33,-16.66 11.22,-27.59 0,-4.94 -1.01,-9.65 -2.98,-14.13 -1.96,-4.49 -4.82,-8.47 -8.52,-11.83 -3.65,-3.42 -7.85,-6.11 -12.67,-8.08 -4.94,-1.96 -10.37,-2.98 -16.26,-2.98l-53.73 0 0 75.77 53.73 0z"/>
   <g>
    <path class="fil0" d="M491.57 8.86l460.86 266.08 0 549.57 -476.21 274.94 -476.21 -274.94 0 -549.57 476.21 -274.94 15.35 8.86zm191.92 181.97l-207.27 -119.67 -414.31 239.2 0 478.72 414.31 239.2 414.31 -239.2 0 -478.72 -207.03 -119.53z"/>
    <path class="fil1" d="M476.21 265.85l122.92 70.97 92.05 53.14 -214.97 124.11 -214.97 -124.11 92.05 -53.14 122.92 -70.97zm245.84 177.59l0 106.28 0 141.94 -122.92 70.96 -122.92 70.97 -30.95 -17.87 0 -248.22 -214.89 -124.07 0 106.28 0 141.94 122.92 70.96 122.92 70.97 30.95 -17.87 0 -248.22 214.89 -124.07z"/>
    <path class="fil0" d="M445.26 1063.86l0 -248.13 30.95 17.87 30.95 -17.87 0 248.13 -61.9 0zm0 -496.35l-429.79 -248.14 30.95 -53.44 429.79 248.14 214.97 -124.11 30.87 17.83 0 35.66 -214.89 124.07 429.79 -248.14 -30.95 -53.44 -429.78 248.14 -214.97 -124.11 -30.87 17.83 0 35.66 214.89 124.07z"/>
   </g>
  </g>
 </g>
</svg>
